<svg width="112" height="112" viewBox="0 0 112 112" fill="none" xmlns="http://www.w3.org/2000/svg">
<path d="M47.3279 104.798C53.2819 110.75 58.7179 110.704 64.6259 104.798L71.8439 97.624C72.5939 96.922 73.2499 96.64 74.2339 96.64H84.3599C92.7499 96.64 96.6399 92.796 96.6399 84.36V74.234C96.6399 73.25 96.9219 72.594 97.6239 71.844L104.75 64.624C110.75 58.718 110.702 53.282 104.75 47.328L97.6239 40.108C96.9219 39.408 96.6399 38.704 96.6399 37.766V27.594C96.6399 19.25 92.7959 15.314 84.3599 15.314H74.2339C73.2499 15.314 72.5939 15.078 71.8439 14.374L64.6239 7.204C58.7179 1.25 53.2819 1.298 47.3279 7.204L40.1079 14.376C39.4079 15.078 38.7039 15.312 37.7659 15.312H27.5939C19.2039 15.312 15.3139 19.156 15.3139 27.592V37.766C15.3139 38.704 15.0779 39.406 14.3739 40.11L7.20387 47.33C1.24987 53.282 1.29787 58.718 7.20387 64.626L14.3759 71.844C15.0779 72.594 15.3119 73.25 15.3119 74.234V84.36C15.3119 92.75 19.2039 96.64 27.5919 96.64H37.7659C38.7039 96.64 39.4059 96.922 40.1099 97.624L47.3279 104.798ZM52.5779 99.546L43.7659 90.686C42.7339 89.61 41.6559 89.186 40.2039 89.186H27.5939C23.4219 89.186 22.7659 88.532 22.7659 84.36V71.75C22.7659 70.344 22.3439 69.266 21.3119 68.234L12.4519 59.422C9.49987 56.422 9.49987 55.578 12.4519 52.578L21.3119 43.766C22.3439 42.734 22.7659 41.656 22.7659 40.204V27.594C22.7659 23.374 23.3759 22.766 27.5939 22.766H40.2039C41.6559 22.766 42.7339 22.39 43.7639 21.312L52.5779 12.452C55.5779 9.5 56.4219 9.5 59.4219 12.452L68.2339 21.312C69.2659 22.392 70.3439 22.766 71.7499 22.766H84.3599C88.5319 22.766 89.1879 23.422 89.1879 27.594V40.204C89.1879 41.656 89.6559 42.734 90.6879 43.764L99.5479 52.578C102.5 55.578 102.5 56.422 99.5479 59.422L90.6879 68.234C89.6559 69.266 89.1879 70.344 89.1879 71.75V84.36C89.1879 88.532 88.5319 89.188 84.3599 89.188H71.7499C70.3439 89.188 69.2659 89.608 68.2339 90.688L59.4219 99.548C56.4219 102.5 55.5779 102.498 52.5779 99.546ZM39.9679 76.018C40.9999 76.018 41.9379 75.642 42.6399 74.892L55.9539 61.532L69.2659 74.892C69.9679 75.596 70.9059 76.018 71.9859 76.018C72.4814 76.0149 72.9714 75.9141 73.428 75.7215C73.8846 75.5289 74.2987 75.2483 74.6468 74.8955C74.9948 74.5428 75.27 74.125 75.4565 73.6659C75.643 73.2068 75.7373 72.7155 75.7339 72.22C75.7339 71.142 75.3139 70.3 74.6099 69.548L61.2959 56.236L74.6559 42.83C75.4059 42.034 75.7819 41.236 75.7819 40.206C75.7792 39.2123 75.3833 38.26 74.6806 37.5573C73.9779 36.8546 73.0256 36.4586 72.0319 36.456C71.0479 36.456 70.2039 36.83 69.4059 37.626L55.9539 50.986L42.5459 37.674C42.2225 37.3119 41.8247 37.0238 41.3798 36.8295C40.9349 36.6352 40.4533 36.5392 39.9679 36.548C37.8599 36.548 36.2179 38.188 36.2179 40.252C36.2179 41.284 36.5939 42.174 37.3439 42.878L50.6559 56.238L37.3439 69.596C36.981 69.9286 36.6929 70.3346 36.4988 70.787C36.3047 71.2393 36.2089 71.7278 36.2179 72.22C36.2179 74.33 37.8579 76.018 39.9679 76.018Z" fill="#B35650"/>
</svg>
