<svg width="48" height="53" viewBox="0 0 48 53" fill="none" xmlns="http://www.w3.org/2000/svg">
<g opacity="0.5">
<path d="M29.2545 46.0702C29.3387 46.0702 29.4228 46.0461 29.501 46.004C31.016 45.1323 32.4168 44.2485 33.6613 43.3708C33.8838 43.2144 33.9379 42.9078 33.7816 42.6794C33.6252 42.4569 33.3186 42.4028 33.0902 42.5591C31.8697 43.4189 30.499 44.2906 29.008 45.1443C28.7735 45.2826 28.6894 45.5832 28.8276 45.8176C28.9178 45.98 29.0862 46.0641 29.2545 46.0641V46.0702Z" fill="black"/>
<path d="M42.7094 30.5411C42.7334 30.2706 42.529 30.0301 42.2585 30.006C41.988 29.982 41.7475 30.1804 41.7234 30.4569C41.5731 32.1283 41.1042 33.6734 40.2805 35.1824C40.1483 35.4229 40.2385 35.7235 40.4789 35.8557C40.5571 35.8978 40.6353 35.9159 40.7134 35.9159C40.8878 35.9159 41.0621 35.8197 41.1463 35.6573C42.0361 34.0281 42.5411 32.3567 42.7034 30.5471L42.7094 30.5411Z" fill="black"/>
<path d="M41.8798 15.2525C41.6092 15.2284 41.3687 15.4268 41.3387 15.6974C41.1884 17.2906 41.0321 19.7194 41.1523 22.2745C41.1643 22.5391 41.3808 22.7495 41.6453 22.7495C41.6513 22.7495 41.6633 22.7495 41.6693 22.7495C41.9459 22.7375 42.1563 22.503 42.1383 22.2325C42.024 19.7315 42.1743 17.3507 42.3246 15.7936C42.3487 15.523 42.1503 15.2765 41.8798 15.2525Z" fill="black"/>
<path d="M29.0501 8.04407C28.8096 7.91781 28.509 8.014 28.3828 8.25449C28.2565 8.49497 28.3527 8.79557 28.5932 8.92182C29.8858 9.59517 31.2445 10.2144 32.6333 10.7615C32.6934 10.7855 32.7535 10.7976 32.8137 10.7976C33.0121 10.7976 33.1984 10.6773 33.2706 10.4849C33.3728 10.2324 33.2465 9.94387 32.994 9.84166C31.6353 9.30659 30.3066 8.70539 29.0501 8.04407Z" fill="black"/>
<path d="M45.8897 30.6914C45.6192 30.6493 45.3667 30.8357 45.3246 31.1062C44.02 39.6012 36.8657 46.5932 24.0601 51.8838C11.2544 46.5932 4.09412 39.6012 2.79552 31.1062C2.75344 30.8357 2.50093 30.6493 2.23039 30.6914C1.95985 30.7335 1.77348 30.986 1.81556 31.2565C3.18029 40.1604 10.5991 47.4349 23.8677 52.8818H23.8797C23.9037 52.8878 23.9218 52.8938 23.9398 52.8998C23.9458 52.8998 23.9578 52.8998 23.9639 52.8998C23.9879 52.8998 24.018 52.9058 24.048 52.9058C24.048 52.9058 24.1021 52.9059 24.1322 52.8998C24.1382 52.8998 24.1502 52.8998 24.1562 52.8998C24.1803 52.8998 24.1983 52.8878 24.2164 52.8818H24.2284C37.4969 47.4349 44.9158 40.1664 46.2805 31.2565C46.3226 30.986 46.1362 30.7335 45.8657 30.6914H45.8897Z" fill="black"/>
<path d="M18.6252 46.004C18.7033 46.0461 18.7875 46.0702 18.8716 46.0702C19.046 46.0702 19.2083 45.98 19.2985 45.8237C19.4368 45.5892 19.3526 45.2826 19.1181 45.1503C17.6272 44.2966 16.2564 43.4249 15.036 42.5651C14.8135 42.4088 14.5009 42.4629 14.3446 42.6854C14.1883 42.9078 14.2424 43.2205 14.4648 43.3768C15.7093 44.2545 17.1101 45.1383 18.6252 46.01V46.004Z" fill="black"/>
<path d="M7.40682 35.9099C7.48498 35.9099 7.56914 35.8918 7.64129 35.8497C7.88177 35.7175 7.97195 35.4169 7.83969 35.1764C7.02205 33.6674 6.5471 32.1223 6.3968 30.4509C6.37275 30.1804 6.13227 29.976 5.86173 30C5.59119 30.0241 5.38678 30.2646 5.41083 30.5351C5.57315 32.3447 6.08417 34.0161 6.96794 35.6453C7.05812 35.8076 7.22646 35.9038 7.40081 35.9038L7.40682 35.9099Z" fill="black"/>
<path d="M6.45089 22.7495C6.45089 22.7495 6.46292 22.7495 6.47494 22.7495C6.73947 22.7495 6.9559 22.5391 6.96793 22.2745C7.08216 19.7194 6.93186 17.2906 6.78156 15.6974C6.75751 15.4268 6.51703 15.2284 6.24047 15.2525C5.96993 15.2765 5.77154 15.517 5.79558 15.7936C5.94588 17.3507 6.09618 19.7375 5.98196 22.2325C5.96993 22.503 6.18035 22.7375 6.45089 22.7495Z" fill="black"/>
<path d="M15.3066 10.7976C15.3667 10.7976 15.4268 10.7855 15.487 10.7615C16.8817 10.2144 18.2405 9.59517 19.527 8.92182C19.7675 8.79557 19.8637 8.49497 19.7375 8.25449C19.6112 8.014 19.3106 7.91781 19.0701 8.04407C17.8136 8.70539 16.4849 9.30659 15.1262 9.84166C14.8737 9.94387 14.7475 10.2264 14.8497 10.4849C14.9278 10.6773 15.1142 10.7976 15.3066 10.7976Z" fill="black"/>
<path d="M44.6152 22.7014C43.4729 22.7014 42.4088 23.2725 41.7836 24.2164H38.3808C38.0441 21.6553 37.0401 19.2505 35.4469 17.2124L36.7816 15.8778C37.8036 16.0701 38.8677 15.7515 39.6132 15.006C40.8517 13.7675 40.8517 11.7595 39.6132 10.521C38.3748 9.28858 36.3667 9.28858 35.1283 10.521C34.3828 11.2665 34.0641 12.3307 34.2565 13.3527L32.9218 14.6874C30.8838 13.0942 28.479 12.0842 25.9238 11.7535V8.35671C26.8677 7.72545 27.4389 6.66734 27.4389 5.51904C27.4389 4.49699 26.988 3.58317 26.2725 2.95792C29.4709 5.22445 35.7715 8.66333 45.8717 10.022C45.6072 11.7355 44.7896 17.3387 44.8437 20.8437C44.8437 21.1142 45.0721 21.3307 45.3367 21.3307H45.3427C45.6192 21.3307 45.8357 21.1022 45.8297 20.8257C45.7635 16.8277 46.9118 9.74549 46.9238 9.67335C46.9479 9.54108 46.9118 9.40281 46.8337 9.3006C46.7555 9.19238 46.6353 9.12024 46.497 9.10822C38.507 8.10421 32.9279 5.71743 29.6573 3.9018C26.1102 1.92986 24.4329 0.174349 24.4148 0.156313C24.4148 0.156313 24.4088 0.150301 24.4028 0.144289C24.4028 0.144289 24.3968 0.138277 24.3908 0.132265C24.3788 0.126253 24.3727 0.120241 24.3607 0.108217C24.3487 0.0961926 24.3367 0.0841684 24.3246 0.0781564C24.3126 0.0661323 24.2946 0.0601203 24.2766 0.0541083C24.2645 0.0480963 24.2525 0.0420844 24.2345 0.0360724C24.2164 0.0300604 24.2044 0.0240482 24.1864 0.0180362C24.1743 0.0180362 24.1623 0.0120242 24.1443 0.00601216C24.1263 0.00601216 24.1082 0.00601202 24.0902 0C24.0782 0 24.0601 0 24.0481 0C24.0301 0 24.012 0 23.994 0C23.982 0 23.9639 0 23.9519 0C23.9339 0 23.9158 0.0060123 23.8978 0.0120243C23.8858 0.0120243 23.8737 0.0180363 23.8617 0.0240484C23.8437 0.0300604 23.8257 0.0360724 23.8136 0.0480964C23.8016 0.0541085 23.7896 0.0601203 23.7776 0.0661323C23.7595 0.0781564 23.7475 0.0901804 23.7295 0.102204C23.7234 0.108216 23.7114 0.114229 23.7054 0.120241C23.7054 0.120241 23.7054 0.126253 23.6994 0.132265C23.6994 0.132265 23.6934 0.138277 23.6874 0.144289C23.6212 0.216433 16.8938 7.17235 1.60521 9.09619C1.47295 9.11423 1.35271 9.18637 1.26854 9.28858C1.19038 9.39679 1.15431 9.52906 1.17836 9.66132C1.19038 9.73347 2.33267 16.8096 2.27255 20.8136C2.27255 21.0902 2.48297 21.3126 2.75952 21.3186H2.76553C3.03607 21.3186 3.25251 21.1022 3.25852 20.8317C3.31263 17.3267 2.49499 11.7234 2.23046 10.01C12.0421 8.68737 18.2645 5.40481 21.5471 3.14429C20.9579 3.75752 20.5912 4.58717 20.5912 5.50701C20.5912 6.6493 21.1623 7.71343 22.1062 8.34469V11.7415C19.5451 12.0782 17.1463 13.0822 15.1022 14.6754L13.7675 13.3407C13.9659 12.3186 13.6413 11.2545 12.8958 10.509C11.6573 9.27655 9.6493 9.27655 8.41683 10.509C7.17836 11.7475 7.17836 13.7555 8.41683 14.994C9.16233 15.7395 10.2265 16.0581 11.2485 15.8657L12.5832 17.2004C10.99 19.2385 9.97996 21.6433 9.6493 24.2044H6.24649C5.61523 23.2605 4.55711 22.6894 3.41483 22.6894C1.53307 22.6894 0 24.2224 0 26.1042C0 27.986 1.53307 29.513 3.41483 29.513C4.55711 29.513 5.61523 28.9419 6.24649 27.998H9.6493C9.98597 30.5591 10.99 32.9639 12.5832 35.002L11.2485 36.3367C10.2204 36.1443 9.15631 36.4629 8.41683 37.2084C7.17836 38.4469 7.17836 40.4549 8.41683 41.6934C9.6493 42.9259 11.6633 42.9259 12.8958 41.6934C13.6413 40.9479 13.9659 39.8838 13.7675 38.8617L15.1022 37.5271C17.1403 39.1202 19.5451 40.1243 22.1062 40.4609V43.8577C21.1623 44.489 20.5912 45.5471 20.5912 46.6954C20.5912 48.5772 22.1242 50.1042 24.006 50.1042C25.8878 50.1042 27.4148 48.5711 27.4148 46.6954C27.4148 45.5531 26.8437 44.489 25.8998 43.8577V40.4609C28.4549 40.1243 30.8597 39.1202 32.8978 37.5271L34.2325 38.8617C34.0401 39.8838 34.3587 40.9479 35.1042 41.6934C36.3427 42.9259 38.3507 42.9259 39.5892 41.6934C40.8277 40.4549 40.8277 38.4469 39.5892 37.2084C38.8437 36.4629 37.7796 36.1443 36.7575 36.3367L35.4228 35.002C37.016 32.9639 38.0261 30.5591 38.3567 27.998H41.7595C42.3908 28.9419 43.4489 29.513 44.5912 29.513C46.4729 29.513 48 27.98 48 26.1042C48 24.2285 46.4729 22.6894 44.5912 22.6894L44.6152 22.7014ZM24.0601 1.19038C24.3908 1.50301 24.9559 1.98998 25.7615 2.59118C25.2505 2.29058 24.6613 2.11022 24.024 2.11022C23.495 2.11022 22.99 2.23647 22.5451 2.45291C23.2545 1.91784 23.7535 1.47295 24.0601 1.19038ZM44.6092 28.5391C43.7255 28.5391 42.9138 28.0581 42.487 27.2826C42.3968 27.1263 42.2345 27.024 42.0541 27.024H37.9359C37.6834 27.024 37.4669 27.2164 37.4429 27.4689C37.1784 30.1443 36.1202 32.6573 34.3948 34.7315C34.2325 34.9299 34.2445 35.2184 34.4249 35.3988L36.2645 37.2385C36.3908 37.3647 36.5772 37.4128 36.7515 37.3647C37.515 37.1423 38.3387 37.3527 38.9038 37.9178C39.7515 38.7655 39.7515 40.1543 38.9038 41.002C38.0561 41.8497 36.6673 41.8497 35.8196 41.002C35.2545 40.4429 35.0441 39.6132 35.2665 38.8497C35.3146 38.6754 35.2665 38.489 35.1403 38.3627L33.3006 36.523C33.2044 36.4269 33.0782 36.3788 32.9519 36.3788C32.8377 36.3788 32.7295 36.4148 32.6333 36.493C30.5591 38.2184 28.0461 39.2705 25.3707 39.5411C25.1182 39.5651 24.9259 39.7756 24.9259 40.0341V44.1523C24.9259 44.3327 25.022 44.501 25.1784 44.5852C25.9539 45.012 26.4349 45.8237 26.4349 46.7074C26.4349 48.0421 25.3467 49.1303 24.012 49.1303C22.6774 49.1303 21.5892 48.0421 21.5892 46.7074C21.5892 45.8237 22.0701 45.006 22.8457 44.5852C23.002 44.495 23.1042 44.3327 23.1042 44.1523V40.0341C23.1042 39.7816 22.9118 39.5651 22.6593 39.5411C19.984 39.2766 17.4709 38.2184 15.3968 36.493C15.1984 36.3307 14.9098 36.3427 14.7295 36.523L12.8898 38.3627C12.7635 38.489 12.7154 38.6754 12.7635 38.8497C12.986 39.6132 12.7756 40.4369 12.2104 41.002C11.3627 41.8497 9.97996 41.8497 9.12625 41.002C8.27856 40.1543 8.27856 38.7715 9.12625 37.9178C9.68537 37.3587 10.515 37.1423 11.2786 37.3647C11.4529 37.4128 11.6393 37.3647 11.7655 37.2385L13.6112 35.3988C13.7916 35.2184 13.8036 34.9299 13.6413 34.7315C11.9158 32.6573 10.8637 30.1443 10.5932 27.4689C10.5691 27.2164 10.3527 27.024 10.1002 27.024H5.98196C5.8016 27.024 5.63327 27.1202 5.5491 27.2826C5.12225 28.0581 4.31062 28.5391 3.42685 28.5391C2.09218 28.5391 1.00401 27.4509 1.00401 26.1162C1.00401 24.7816 2.09218 23.6934 3.42685 23.6934C4.31062 23.6934 5.12225 24.1743 5.5491 24.9499C5.63928 25.1062 5.8016 25.2084 5.98196 25.2084H10.1002C10.3527 25.2084 10.5691 25.016 10.5932 24.7635C10.8577 22.0882 11.9158 19.5752 13.6413 17.501C13.8036 17.3026 13.7916 17.014 13.6112 16.8337L11.7655 14.994C11.6393 14.8677 11.4529 14.8196 11.2786 14.8677C10.515 15.0902 9.69138 14.8798 9.12625 14.3146C8.27856 13.4669 8.27856 12.0842 9.12625 11.2305C9.97395 10.3828 11.3567 10.3828 12.2104 11.2305C12.7695 11.7896 12.986 12.6192 12.7635 13.3828C12.7154 13.5571 12.7635 13.7435 12.8898 13.8697L14.7295 15.7094C14.9098 15.8898 15.1984 15.9018 15.3968 15.7395C17.4709 14.014 19.984 12.9619 22.6593 12.6914C22.9118 12.6673 23.1042 12.4569 23.1042 12.1984V8.08016C23.1042 7.8998 23.008 7.73146 22.8457 7.64729C22.0701 7.22044 21.5892 6.40882 21.5892 5.51904C21.5892 4.18437 22.6774 3.09619 24.012 3.09619C25.3467 3.09619 26.4349 4.18437 26.4349 5.51904C26.4349 6.40281 25.9539 7.22044 25.1784 7.64729C25.022 7.73146 24.9259 7.8998 24.9259 8.08016V12.1984C24.9259 12.4509 25.1182 12.6673 25.3707 12.6914C28.0461 12.9559 30.5591 14.014 32.6333 15.7395C32.8317 15.9018 33.1202 15.8898 33.3006 15.7094L35.1403 13.8697C35.2665 13.7435 35.3146 13.5571 35.2665 13.3828C35.0441 12.6192 35.2545 11.7956 35.8196 11.2305C36.6673 10.3828 38.0501 10.3828 38.9038 11.2305C39.7515 12.0782 39.7515 13.4609 38.9038 14.3146C38.3387 14.8737 37.515 15.0902 36.7515 14.8677C36.5772 14.8196 36.3908 14.8677 36.2645 14.994L34.4249 16.8337C34.2445 17.014 34.2325 17.3026 34.3948 17.501C36.1202 19.5752 37.1723 22.0882 37.4429 24.7635C37.4669 25.016 37.6774 25.2084 37.9359 25.2084H42.0541C42.2345 25.2084 42.4028 25.1122 42.487 24.9499C42.9138 24.1743 43.7255 23.6934 44.6092 23.6934C45.9439 23.6934 47.0321 24.7816 47.0321 26.1162C47.0321 27.4509 45.9439 28.5391 44.6092 28.5391Z" fill="black"/>
<path d="M28.8397 24.6012C26.5431 24.6012 24.6734 26.471 24.6734 28.7676C24.6734 31.0642 26.5431 32.9339 28.8397 32.9339C31.1363 32.9339 33.006 31.0642 33.006 28.7676C33.006 26.471 31.1363 24.6012 28.8397 24.6012ZM28.8397 31.9419C27.0902 31.9419 25.6654 30.5171 25.6654 28.7676C25.6654 27.0181 27.0902 25.5932 28.8397 25.5932C30.5892 25.5932 32.0141 27.0181 32.0141 28.7676C32.0141 30.5171 30.5892 31.9419 28.8397 31.9419Z" fill="black"/>
<path d="M21.8296 28.7675C21.8296 27.1683 20.525 25.8637 18.9258 25.8637C17.3266 25.8637 16.022 27.1683 16.022 28.7675C16.022 30.3667 17.3266 31.6714 18.9258 31.6714C20.525 31.6714 21.8296 30.3667 21.8296 28.7675ZM17.0079 28.7675C17.0079 27.7094 17.8677 26.8497 18.9258 26.8497C19.9839 26.8497 20.8376 27.7094 20.8376 28.7675C20.8376 29.8257 19.9779 30.6854 18.9258 30.6854C17.8737 30.6854 17.0079 29.8257 17.0079 28.7675Z" fill="black"/>
<path d="M23.7474 22.1483C25.3466 22.1483 26.6512 20.8437 26.6512 19.2445C26.6512 17.6453 25.3466 16.3407 23.7474 16.3407C22.1482 16.3407 20.8436 17.6453 20.8436 19.2445C20.8436 20.8437 22.1482 22.1483 23.7474 22.1483ZM23.7474 17.3267C24.8056 17.3267 25.6653 18.1864 25.6653 19.2445C25.6653 20.3027 24.8056 21.1624 23.7474 21.1624C22.6893 21.1624 21.8296 20.3027 21.8296 19.2445C21.8296 18.1864 22.6893 17.3267 23.7474 17.3267Z" fill="black"/>
<path d="M29.0801 16.7675C28.8396 16.6352 28.539 16.7254 28.4068 16.9659C28.2805 17.2064 28.3647 17.507 28.6052 17.6393C30.8777 18.8717 32.5851 21 33.2945 23.4769C33.3546 23.6934 33.553 23.8377 33.7695 23.8377C33.8116 23.8377 33.8597 23.8316 33.9017 23.8196C34.1663 23.7475 34.3166 23.4709 34.2444 23.2124C33.4689 20.4829 31.5811 18.1322 29.0741 16.7735L29.0801 16.7675Z" fill="black"/>
<path d="M26.7776 35.3507C25.8878 35.6152 24.962 35.7535 24.0241 35.7535C22.3167 35.7535 20.6393 35.3026 19.1724 34.4429C18.9379 34.3046 18.6313 34.3828 18.493 34.6172C18.3548 34.8517 18.4329 35.1583 18.6734 35.2966C20.2906 36.2405 22.1423 36.7395 24.0241 36.7395C25.0582 36.7395 26.0802 36.5892 27.0602 36.3006C27.3247 36.2224 27.475 35.9459 27.3908 35.6813C27.3127 35.4168 27.0361 35.2725 26.7776 35.3507Z" fill="black"/>
<path d="M17.7535 18.7996C17.9579 18.6192 17.982 18.3126 17.8076 18.1022C17.6333 17.8918 17.3207 17.8737 17.1102 18.0481C14.7535 20.0742 13.4008 23.014 13.4008 26.1162C13.4008 26.3868 13.6233 26.6092 13.8938 26.6092C14.1643 26.6092 14.3868 26.3868 14.3868 26.1162C14.3868 23.3026 15.6132 20.6333 17.7535 18.7996Z" fill="black"/>
</g>
</svg>
