<svg width="48" height="48" viewBox="0 0 48 48" fill="none" xmlns="http://www.w3.org/2000/svg">
<g opacity="0.5">
<path fill-rule="evenodd" clip-rule="evenodd" d="M13.2027 47.9911C11.6534 47.9911 10.1171 47.4183 8.91925 46.2595C7.46105 44.8534 6.81007 42.8484 7.10952 40.8824C6.79705 40.9345 6.48458 40.9475 6.17211 40.9475C4.55768 40.9475 2.98231 40.3095 1.81054 39.1378C1.21164 38.5389 0.742931 37.8228 0.43046 37.0416C0.131009 36.2735 -0.0122059 35.4793 0.000813729 34.646C0.0398726 32.9535 0.742931 31.3781 1.99281 30.2324C3.16458 29.1517 4.70089 28.5789 6.30231 28.6179C7.90372 28.657 9.414 29.308 10.5337 30.4407C10.5988 30.5188 10.6769 30.5839 10.742 30.662L30.662 10.742C30.5839 10.6769 30.5188 10.5988 30.4407 10.5337C29.308 9.41399 28.657 7.90372 28.6179 6.30231C28.5789 4.70089 29.1517 3.16458 30.2324 1.99282C31.3781 0.742932 32.9535 0.026853 34.646 0.000813724C35.4662 -0.0122059 36.2735 0.13101 37.0416 0.430461C37.8358 0.742932 38.5389 1.19862 39.1378 1.81054C40.5699 3.19062 41.1949 5.1696 40.8954 7.0965C42.8614 6.79705 44.8664 7.44803 46.2725 8.90623C48.6291 11.3409 48.564 15.2468 46.1423 17.6164C44.9706 18.7491 43.4343 19.374 41.8068 19.361C40.1793 19.348 38.643 18.71 37.4843 17.5513C37.4062 17.4731 37.3281 17.395 37.263 17.3169L17.3429 37.2369C17.4211 37.315 17.4992 37.3801 17.5773 37.4582C18.736 38.617 19.374 40.1533 19.387 41.7808C19.4 43.4082 18.7751 44.9575 17.6424 46.1163C16.4185 47.3662 14.8171 47.9911 13.2027 47.9911ZM7.74748 39.2289C8.00788 39.2289 8.26827 39.3331 8.46356 39.5284C8.72396 39.7888 8.82811 40.1663 8.72395 40.5309C8.24223 42.1974 8.72395 43.9811 9.96082 45.1789C10.8592 46.0512 12.0309 46.4808 13.2027 46.4808C14.4135 46.4808 15.6374 46.0121 16.5487 45.0747C18.3194 43.252 18.3064 40.3095 16.5097 38.5128C16.2884 38.2915 16.041 38.0962 15.7806 37.927C15.5983 37.7968 15.4681 37.6015 15.4551 37.3801C15.4291 37.1588 15.5072 36.9375 15.6764 36.7812L36.7942 15.6634C36.9505 15.5072 37.1718 15.4291 37.3932 15.4421C37.6145 15.4681 37.8228 15.5853 37.94 15.7676C38.1092 16.028 38.3045 16.2623 38.5259 16.4967C40.3226 18.2934 43.265 18.3064 45.0877 16.5357C46.9235 14.739 46.9626 11.7966 45.1919 9.9478C43.9941 8.69792 42.2104 8.22921 40.5439 8.71094C40.1924 8.81509 39.8148 8.71094 39.5414 8.45054C39.281 8.19015 39.1768 7.81258 39.281 7.44803C39.7497 5.82058 39.294 4.04991 38.0962 2.85211C37.1848 1.94074 35.987 1.45901 34.6981 1.48505C33.4091 1.51109 32.2244 2.04489 31.352 2.99533C29.6725 4.81807 29.7506 7.72145 31.5083 9.46607C31.7296 9.68741 31.964 9.8827 32.2113 10.0389C32.3936 10.1691 32.5238 10.3644 32.5368 10.5858C32.5629 10.8071 32.4848 11.0284 32.3155 11.1847L11.2237 32.3285C11.0675 32.4848 10.8462 32.5629 10.6248 32.5499C10.4035 32.5238 10.1952 32.4066 10.078 32.2244C9.90874 31.977 9.71345 31.7296 9.50513 31.5083C7.7605 29.7506 4.85713 29.6855 3.03438 31.352C2.08395 32.2244 1.55015 33.4091 1.52411 34.6981C1.48505 35.974 1.96678 37.1848 2.87815 38.0832C4.07595 39.281 5.8336 39.7367 7.47407 39.268C7.55219 39.2419 7.65635 39.2289 7.74748 39.2289Z" fill="black"/>
</g>
</svg>
