<svg width="48" height="48" viewBox="0 0 48 48" fill="none" xmlns="http://www.w3.org/2000/svg">
<g opacity="0.5">
<path d="M48 9.6C48 4.3065 43.6935 0 38.4 0C33.1065 0 28.8 4.3065 28.8 9.6C28.8 9.7504 28.8042 9.9001 28.811 10.0495C26.1512 8.7383 23.1605 8 20 8C8.972 8 0 16.972 0 28C0 39.028 8.972 48 20 48C31.028 48 40 39.028 40 28C40 24.8382 39.2595 21.8479 37.946 19.1885C38.0969 19.1956 38.2482 19.2 38.4 19.2C43.6935 19.2 48 14.8935 48 9.6ZM38.4 1.6C42.8112 1.6 46.4 5.1888 46.4 9.6C46.4 14.0112 42.8112 17.6 38.4 17.6C36.4328 17.6 34.5417 16.8789 33.0751 15.5696C32.9261 15.4366 32.7356 15.3664 32.5422 15.3664C32.4504 15.3664 32.3579 15.3822 32.2689 15.4145L28.5094 16.7817L30.8993 13.3674C31.055 13.145 31.0873 12.859 30.9851 12.6076C30.5969 11.6516 30.4 10.6396 30.4 9.6C30.4 5.1888 33.9888 1.6 38.4 1.6ZM25.7652 18.8869C25.9198 19.0884 26.1564 19.2001 26.4002 19.2001C26.4915 19.2001 26.584 19.1844 26.6734 19.1519L31.038 17.5647C31.2953 17.8367 31.5428 18.1181 31.7798 18.4085C30.1178 18.522 28.8 19.9096 28.8 21.6C28.8 22.1488 28.9396 22.6654 29.1841 23.1172C28.4622 23.7044 28 24.5991 28 25.6C28 26.8502 28.7212 27.9346 29.769 28.4609C29.6598 28.8247 29.6 29.2072 29.6 29.6C29.6 30.6111 29.9904 31.5855 30.6679 32.3189C30.4922 32.7198 30.4 33.1529 30.4 33.6C30.4 33.6274 30.4014 33.6545 30.4021 33.6817C30.1428 33.6287 29.8748 33.6 29.6 33.6C27.5224 33.6 25.8103 35.1924 25.6185 37.2206C25.0519 37.5423 24.6008 38.0266 24.3208 38.6034C23.9655 38.4702 23.5866 38.4 23.2 38.4C22.7522 38.4 22.3185 38.4925 21.9168 38.669C21.1835 37.9916 20.2107 37.6 19.2 37.6C19.1664 37.6 19.1331 37.6023 19.0995 37.6032C18.7445 36.223 17.4895 35.2 16 35.2C15.1243 35.2 14.3299 35.5539 13.7515 36.1257C13.4619 35.8836 13.1373 35.6814 12.7852 35.5284C12.7941 35.4193 12.8 35.3099 12.8 35.2C12.8 33.2379 11.3794 31.6024 9.5131 31.2649C9.349 30.5773 8.9592 29.9623 8.4146 29.5183C8.664 29.0555 8.8 28.5335 8.8 28C8.8 27.8902 8.7939 27.7812 8.7829 27.673C10.221 27.0515 11.2 25.6158 11.2 24C12.9645 24 14.4 22.5645 14.4 20.8C14.4 20.0437 14.135 19.3491 13.6944 18.8012C13.9749 18.4523 14.1844 18.044 14.2993 17.5979C14.3328 17.5989 14.3664 17.6 14.4 17.6C16.1645 17.6 17.6 16.1645 17.6 14.4C17.6 13.922 17.4942 13.46 17.2971 13.0409C18.1745 12.8827 19.0777 12.8 20 12.8C22.8591 12.8 25.5352 13.5952 27.822 14.9736L25.7446 17.9413C25.5444 18.2272 25.5528 18.61 25.7652 18.8869ZM33.4476 20.923C33.5443 21.129 33.6 21.3578 33.6 21.6C33.6 22.1391 33.3311 22.615 32.9211 22.9044C32.4237 22.5857 31.8333 22.4 31.2 22.4C31.0106 22.4 30.8254 22.4175 30.645 22.4492C30.4899 22.203 30.4 21.9119 30.4 21.6C30.4 20.7178 31.1178 20 32 20C32.5733 20 33.0756 20.3041 33.3582 20.7584C33.3881 20.8132 33.4184 20.8678 33.4476 20.923ZM35.2 28C35.2 28.9221 35.1173 29.8253 34.9592 30.7026C34.5401 30.5054 34.078 30.4 33.6 30.4C32.8922 30.4 32.225 30.627 31.6783 31.0398C31.3698 30.6303 31.2 30.1304 31.2 29.6C31.2 29.3205 31.2507 29.0498 31.3417 28.7964C32.1687 28.7602 32.9152 28.409 33.4636 27.8596C33.7636 27.9514 34.0783 28 34.4 28C34.6734 28 34.9405 27.9651 35.1987 27.8984C35.1989 27.9323 35.2 27.966 35.2 28ZM31.2 24C32.0822 24 32.8 24.7178 32.8 25.6C32.8 26.4822 32.0822 27.2 31.2 27.2C30.3178 27.2 29.6 26.4822 29.6 25.6C29.6 24.7178 30.3178 24 31.2 24ZM16 40C15.1178 40 14.4 39.2822 14.4 38.4C14.4 37.5178 15.1178 36.8 16 36.8C16.8822 36.8 17.6 37.5178 17.6 38.4C17.6 39.2822 16.8822 40 16 40ZM4.8669 29.4208C4.8234 28.9529 4.8 28.4792 4.8 28C4.8 27.5212 4.8233 27.0477 4.8669 26.5801C4.8834 26.5716 4.8991 26.5613 4.9159 26.5533C5.1311 26.4516 5.3612 26.4 5.6 26.4C6.2563 26.4 6.8562 26.8115 7.0932 27.4251C7.1641 27.608 7.2 27.8015 7.2 28C7.2 28.4474 7.02 28.8621 6.6936 29.1676C6.3953 29.4465 6.007 29.6 5.6 29.6C5.4083 29.6 5.22 29.5659 5.0384 29.4979C4.9796 29.4761 4.9228 29.4497 4.8669 29.4208ZM12.4119 19.761C12.653 20.0402 12.8 20.4025 12.8 20.8C12.8 21.6822 12.0822 22.4 11.2 22.4C11.0792 22.4 10.9622 22.385 10.8491 22.3593C10.7743 22.1929 10.6881 22.0316 10.5908 21.8764C10.9829 21.3358 11.2 20.6819 11.2 20C11.6288 20 12.0378 19.9146 12.4119 19.761ZM15.67 13.4293C15.882 13.7054 16 14.0438 16 14.4C16 15.2822 15.2822 16 14.4 16C14.2168 16 14.0368 15.9689 13.8634 15.9069C13.2944 15.7051 12.8931 15.2057 12.814 14.6091C13.7155 14.1234 14.6715 13.7266 15.67 13.4293ZM11.3881 15.4823C11.637 16.1777 12.1212 16.7668 12.761 17.147C12.602 17.8628 11.963 18.4 11.2 18.4C11.0362 18.4 10.8774 18.3739 10.7241 18.3257C10.4612 17.8986 10.1005 17.5379 9.6741 17.2755C9.638 17.1603 9.6155 17.0415 9.6066 16.9196C10.1628 16.3975 10.7583 15.9168 11.3881 15.4823ZM8.2121 18.4154C8.3775 18.4373 8.5376 18.4834 8.6902 18.5568C9.0188 18.7138 9.2863 18.9813 9.4441 19.3116C9.5476 19.5269 9.6001 19.7586 9.6001 20.0001C9.6001 20.4706 9.394 20.9152 9.0351 21.2196C8.7453 21.4648 8.3778 21.6 8 21.6C7.4262 21.6 6.9058 21.2982 6.6165 20.7999C7.0736 19.9537 7.6088 19.1559 8.2121 18.4154ZM5.8729 22.3909C6.4475 22.9041 7.1975 23.2 8 23.2C8.4639 23.2 8.9197 23.098 9.3364 22.9063C9.5081 23.2414 9.6 23.6148 9.6 24C9.6 24.9422 9.045 25.7812 8.2218 26.1702C7.6309 25.3296 6.6522 24.8 5.6 24.8C5.4421 24.8 5.2862 24.8124 5.1324 24.8349C5.3115 23.9926 5.5602 23.1757 5.8729 22.3909ZM5.6 31.2C6.2171 31.2 6.8122 31.0235 7.3237 30.6957C7.7391 30.9912 8 31.4759 8 32C8 32.8822 7.2822 33.6 6.4 33.6C6.2479 33.6 6.0978 33.5784 5.9468 33.5338C5.9064 33.5223 5.8667 33.5068 5.827 33.4916C5.5359 32.7429 5.3027 31.9656 5.1325 31.1651C5.2867 31.1879 5.4427 31.2 5.6 31.2ZM9.4713 32.8962C10.4688 33.1875 11.2 34.1097 11.2 35.2C11.2 35.4232 11.1697 35.6439 11.1104 35.8547C10.8188 36.8823 9.8688 37.6 8.8 37.6C8.6272 37.6 8.4562 37.5816 8.2855 37.5442C8.2416 37.5349 8.1972 37.5234 8.1528 37.5111C7.5719 36.789 7.0552 36.0133 6.6123 35.1921C7.972 35.1026 9.1018 34.1604 9.4713 32.8962ZM12.3287 37.0827C12.5495 37.2013 12.7489 37.3534 12.9208 37.5315C12.8427 37.8079 12.8 38.099 12.8 38.4C12.8 38.7268 12.8495 39.0422 12.9409 39.3394C12.501 39.779 12.1927 40.341 12.0657 40.9599C11.1948 40.4247 10.382 39.8041 9.6384 39.1101C10.7848 38.862 11.7742 38.1163 12.3287 37.0827ZM13.6126 41.7908C13.6049 41.7287 13.6 41.665 13.6 41.6C13.6 41.2959 13.6884 41.0075 13.8418 40.7604C14.4113 41.2815 15.1691 41.6 16 41.6C16.275 41.6 16.5419 41.5651 16.7967 41.4996C16.7988 41.5329 16.8 41.5663 16.8 41.6C16.8 42.0386 16.6251 42.446 16.3141 42.7471C15.3762 42.5126 14.4728 42.1908 13.6126 41.7908ZM18.26 40.6632C18.6581 40.2656 18.9523 39.764 19.0978 39.2031C19.1318 39.2017 19.1657 39.1999 19.2 39.1999C19.7303 39.1999 20.2301 39.3696 20.6396 39.6782C20.2271 40.2248 20 40.8921 20 41.6C20 42.1717 20.1477 42.7172 20.422 43.1939C20.2818 43.1977 20.1412 43.2 20 43.2C19.3349 43.2 18.6798 43.1567 18.0371 43.0735C18.2713 42.6226 18.4 42.1174 18.4 41.6C18.4 41.2765 18.3512 40.962 18.26 40.6632ZM22.4342 43.0042C22.3671 42.9676 22.3022 42.9266 22.2405 42.8804C21.8334 42.5746 21.6 42.1079 21.6 41.6C21.6 41.0921 21.8334 40.6254 22.2394 40.3204C22.5195 40.1108 22.8516 40 23.2 40C23.4867 40 23.7648 40.0777 24.0086 40.2209C24.0552 40.89 24.3116 41.5273 24.7372 42.0412C24.6887 42.2111 24.612 42.3712 24.5091 42.5173C23.8362 42.7267 23.1432 42.8896 22.4342 43.0042ZM26.8588 41.5621C26.5884 41.504 26.3389 41.3776 26.1286 41.1879C25.7927 40.885 25.6 40.4521 25.6 40C25.6 39.9568 25.6014 39.9183 25.6048 39.8782C25.6526 39.2456 26.0697 38.7014 26.6723 38.4903C26.8401 38.4303 27.0176 38.4 27.2 38.4C28.0822 38.4 28.8 39.1178 28.8 40C28.8 40.147 28.7793 40.2906 28.7402 40.4287C28.1432 40.8499 27.5146 41.2291 26.8588 41.5621ZM30.2917 39.1751C29.9382 37.8515 28.7555 36.8634 27.3365 36.8035C27.6657 35.8706 28.5558 35.2 29.6 35.2C30.8346 35.2 31.8542 36.1373 31.9854 37.3376C31.4716 37.9956 30.9048 38.61 30.2917 39.1751ZM33.3915 35.1848C32.6077 35.0821 32 34.4114 32 33.6C32 33.2516 32.1107 32.9194 32.3196 32.6405C32.6254 32.2335 33.0921 32 33.6 32C33.9562 32 34.2945 32.118 34.5707 32.33C34.2735 33.3281 33.877 34.2837 33.3915 35.1848ZM35.0804 26.2476C34.8678 26.3487 34.6389 26.4 34.4 26.4C34.3664 26.4 34.3329 26.3986 34.2996 26.3965C34.3651 26.1418 34.4 25.8749 34.4 25.6C34.4 25.0507 34.2607 24.5333 34.0159 24.0811C34.2081 23.9247 34.3824 23.7472 34.5339 23.551C34.7997 24.4167 34.99 25.3149 35.0972 26.2384C35.0914 26.2412 35.0862 26.2448 35.0804 26.2476ZM38.4 28C38.4 38.1458 30.1458 46.4 20 46.4C9.8542 46.4 1.6 38.1458 1.6 28C1.6 17.8542 9.8542 9.6 20 9.6C23.3113 9.6 26.4203 10.4803 29.1073 12.0176C29.1755 12.2801 29.2551 12.5398 29.3458 12.7966L28.7417 13.6596C26.1935 12.1002 23.2001 11.2 20 11.2C10.7364 11.2 3.2 18.7364 3.2 28C3.2 37.2636 10.7364 44.8 20 44.8C29.2636 44.8 36.8 37.2636 36.8 28C36.8 24.1274 35.4817 20.5578 33.2717 17.7136C34.109 18.2434 35.0205 18.6406 35.9759 18.8896C37.5166 21.5767 38.4 24.6862 38.4 28Z" fill="black"/>
<path d="M32.8 12.8H35.2V15.2C35.2 15.6418 35.5582 16 36 16H40.8C41.2418 16 41.6 15.6418 41.6 15.2V12.8H44C44.4418 12.8 44.8 12.4418 44.8 12V7.20001C44.8 6.75821 44.4418 6.40001 44 6.40001H41.6V4.00001C41.6 3.55821 41.2418 3.20001 40.8 3.20001H36C35.5582 3.20001 35.2 3.55821 35.2 4.00001V6.40001H32.8C32.3582 6.40001 32 6.75821 32 7.20001V12C32 12.4418 32.3582 12.8 32.8 12.8ZM33.6 8.00001H36C36.4418 8.00001 36.8 7.64181 36.8 7.20001V4.80001H40V7.20001C40 7.64181 40.3582 8.00001 40.8 8.00001H43.2V11.2H40.8C40.3582 11.2 40 11.5582 40 12V14.4H36.8V12C36.8 11.5582 36.4418 11.2 36 11.2H33.6V8.00001Z" fill="black"/>
<path d="M23.4343 21.8343L20.8 24.4687L18.1657 21.8343C17.8532 21.522 17.3468 21.522 17.0343 21.8343L14.6343 24.2343C14.3219 24.5468 14.3219 25.0532 14.6343 25.3657L17.2687 28L14.6343 30.6343C14.3219 30.9468 14.3219 31.4532 14.6343 31.7657L17.0343 34.1657C17.3468 34.478 17.8532 34.478 18.1657 34.1657L20.8 31.5313L23.4343 34.1657C23.5905 34.3219 23.7952 34.4 24 34.4C24.2048 34.4 24.4095 34.3219 24.5657 34.1657L26.9657 31.7657C27.2781 31.4532 27.2781 30.9468 26.9657 30.6343L24.3313 28L26.9657 25.3657C27.2781 25.0532 27.2781 24.5468 26.9657 24.2343L24.5657 21.8343C24.2532 21.522 23.7468 21.522 23.4343 21.8343ZM22.6343 27.4343C22.3219 27.7468 22.3219 28.2532 22.6343 28.5657L25.2687 31.2L24 32.4687L21.3657 29.8343C21.2095 29.6781 21.0048 29.6 20.8 29.6C20.5952 29.6 20.3905 29.6781 20.2343 29.8343L17.6 32.4687L16.3313 31.2L18.9657 28.5657C19.2781 28.2532 19.2781 27.7468 18.9657 27.4343L16.3313 24.8L17.6 23.5313L20.2343 26.1657C20.5468 26.478 21.0532 26.478 21.3657 26.1657L24 23.5313L25.2687 24.8L22.6343 27.4343Z" fill="black"/>
</g>
</svg>
