<svg width="48" height="48" viewBox="0 0 48 48" fill="none" xmlns="http://www.w3.org/2000/svg">
<g opacity="0.5">
<path d="M28.0112 1.54839C23.3294 1.54839 18.7904 3.19616 15.2001 6.19355H12.3871C9.82577 6.19355 7.74194 4.10971 7.74194 1.54839C7.74194 0.694645 7.04729 0 6.19355 0H3.09677C2.24303 0 1.54839 0.694645 1.54839 1.54839C1.54839 6.20971 3.61742 10.5759 7.22506 13.5276L15.2703 20.1101C17.3741 21.8313 18.5806 24.3774 18.5806 27.0956C18.5806 29.2298 16.8444 30.9663 14.7104 30.9666L11.6124 30.9672C10.3487 30.9674 9.22452 31.5764 8.51768 32.5161H6.96774C3.12571 32.5161 0 35.6418 0 39.4839V46.4516C0 47.3054 0.694645 48 1.54839 48H6.19355C7.04729 48 7.74194 47.3054 7.74194 46.4516V44.129C7.74194 43.7022 8.08926 43.3548 8.51613 43.3548H12.2236C12.9904 43.3548 13.7328 43.13 14.3709 42.7047L15.1558 42.1814C15.5237 41.9361 15.952 41.8065 16.3941 41.8065C16.7085 41.8065 17.0136 41.8712 17.3008 41.9988L19.9699 43.1851C22.5351 44.3251 25.2589 44.9032 28.0661 44.9032C39.0577 44.9032 48 35.9609 48 24.9693V21.5372C48 10.5153 39.033 1.54839 28.0112 1.54839ZM43.3548 24.4271C43.3548 25.3 43.2826 26.1561 43.1461 26.991C42.7091 26.7023 42.2623 26.4287 41.8065 26.1715V24.4102C41.8065 20.1219 41.1138 15.9345 39.744 11.918C41.9984 14.6431 43.3548 18.1369 43.3548 21.9416V24.4271ZM37.0913 9.37858C39.1922 14.143 40.2581 19.1989 40.2581 24.4102V25.3739C39.977 25.2426 39.6934 25.1173 39.4073 24.9975L39.3267 23.6278C39.0021 18.1099 37.4254 12.7215 34.7418 7.905C35.5699 8.32761 36.3555 8.82174 37.0913 9.37858ZM32.3565 6.92613C35.5554 11.9615 37.4305 17.7613 37.7809 23.7188L37.8211 24.4019C37.563 24.3157 37.3033 24.2344 37.0423 24.1574C36.6714 20.6762 35.7699 17.2886 34.3571 14.0809C33.1248 11.2831 31.5287 8.68026 29.6031 6.31955C30.5496 6.43984 31.4697 6.645 32.3565 6.92613ZM27.4613 6.19529C31.8168 11.076 34.6217 17.2593 35.4353 23.7456C35.1675 23.6872 34.8988 23.6333 34.6291 23.5846L34.5306 23.0594C33.3371 16.6938 30.1354 10.8208 25.4598 6.36271C26.1164 6.25877 26.7849 6.20235 27.4613 6.19529ZM23.6312 6.78387C28.4864 11.0941 31.8114 16.9584 33.0087 23.3446L33.0103 23.3529C32.7988 23.3303 32.5872 23.3106 32.3751 23.294C31.5951 20.0017 30.2179 16.9263 28.2752 14.1453C26.4694 11.5604 24.2569 9.34645 21.6872 7.54935C22.3142 7.24413 22.9636 6.98787 23.6312 6.78387ZM20.1864 8.40368C25.4078 11.8398 29.2109 17.1792 30.7625 23.2271C30.7236 23.2269 30.6847 23.2259 30.6458 23.2259C30.3691 23.2259 30.0929 23.2316 29.8171 23.2417C28.0971 17.4064 24.1436 12.4134 18.8559 9.40123C19.2811 9.03968 19.7255 8.70687 20.1864 8.40368ZM17.7075 10.5345C22.7404 13.2691 26.5327 17.9035 28.232 23.3553C27.9111 23.3896 27.5913 23.431 27.2724 23.479C25.4958 18.5691 21.8099 14.6055 17.0346 12.4796C17.0536 11.7694 17.2878 11.0957 17.7075 10.5345ZM25.728 23.7663C24.9721 23.9346 24.2236 24.1416 23.4852 24.3878L23.037 24.5372C22.8217 23.4877 22.4247 22.4792 21.8578 21.5579L17.6312 14.6896C17.5767 14.601 17.5266 14.5102 17.4793 14.4182C21.2713 16.4229 24.2039 19.7366 25.728 23.7663ZM23.2258 26.391C23.2258 26.2965 23.2238 26.2023 23.2209 26.108L23.9747 25.8567C26.1298 25.1385 28.3742 24.7742 30.6457 24.7742C34.9663 24.7742 39.2574 26.1375 42.7897 28.6215C41.2461 34.2329 36.6848 38.6064 30.9677 39.8797V39.4839C30.9677 39.057 31.3151 38.7097 31.7419 38.7097C33.0226 38.7097 34.0645 37.6677 34.0645 36.3871C34.0645 35.9602 34.4118 35.6129 34.8387 35.6129C36.1194 35.6129 37.1613 34.5709 37.1613 33.2903C37.1613 32.8635 37.5086 32.5161 37.9355 32.5161C39.2162 32.5161 40.2581 31.4742 40.2581 30.1935V29.4194H38.7097V30.1935C38.7097 30.6204 38.3624 30.9677 37.9355 30.9677C36.6548 30.9677 35.6129 32.0097 35.6129 33.2903C35.6129 33.7172 35.2656 34.0645 34.8387 34.0645C33.558 34.0645 32.5161 35.1065 32.5161 36.3871C32.5161 36.814 32.1688 37.1613 31.7419 37.1613C30.4612 37.1613 29.4194 38.2033 29.4194 39.4839V40.1442C28.7977 40.2187 28.1653 40.2581 27.5238 40.2581C27.1212 40.2581 26.7206 40.2426 26.3226 40.2127V39.4839C26.3226 39.057 26.6699 38.7097 27.0968 38.7097C28.3775 38.7097 29.4194 37.6677 29.4194 36.3871V35.6129H27.871V36.3871C27.871 36.814 27.5236 37.1613 27.0968 37.1613C25.8161 37.1613 24.7742 38.2033 24.7742 39.4839V40.0184C23.5127 39.7965 22.282 39.4215 21.0944 38.8936L18.2175 37.615C17.5403 37.314 16.8212 37.1613 16.0801 37.1613C15.03 37.1613 14.0146 37.4683 13.144 38.0488L12.7344 38.3218C12.3539 38.5755 11.9109 38.7097 11.4533 38.7097C10.8748 38.7097 10.3314 38.4851 9.92303 38.0772C9.52306 37.6777 9.29923 37.1488 9.29061 36.5848C9.657 35.9813 10.3058 35.6129 11.0215 35.6129H14.004C19.0889 35.6129 23.2258 31.476 23.2258 26.391ZM46.4516 24.9693C46.4516 35.1071 38.2038 43.3548 28.066 43.3548C25.477 43.3548 22.9647 42.8216 20.5989 41.7702L17.9297 40.5839C17.4433 40.3677 16.9266 40.2581 16.3941 40.2581C15.6453 40.2581 14.9201 40.4776 14.2968 40.8931L13.5119 41.4165C13.1291 41.6716 12.6836 41.8065 12.2235 41.8065H8.51613C7.23542 41.8065 6.19355 42.8484 6.19355 44.129V46.4516H1.54839V39.4839C1.54839 36.4956 3.97955 34.0645 6.96774 34.0645H7.81965C7.76874 34.3147 7.74194 34.5734 7.74194 34.8383V36.5509C7.74194 37.5415 8.12787 38.4726 8.82881 39.1726C9.52955 39.8725 10.4617 40.2581 11.4533 40.2581C12.2175 40.2581 12.9576 40.034 13.5935 39.6101L14.0027 39.3374C14.6184 38.9267 15.3368 38.7098 16.0801 38.7098C16.6031 38.7098 17.1106 38.8175 17.5886 39.03L20.4655 40.3087C22.7018 41.3025 25.0766 41.8065 27.5239 41.8065C37.1069 41.8065 44.9032 34.0101 44.9032 24.4271V21.9416C44.9032 12.4043 37.1441 4.64516 27.6068 4.64516C23.5764 4.64516 19.7872 6.21465 16.9374 9.06455C16.0001 10.0019 15.4839 11.248 15.4839 12.5736C15.4839 13.6079 15.7704 14.6204 16.3125 15.5012L20.5392 22.3695C21.2838 23.5795 21.6774 24.9702 21.6774 26.3911C21.6774 30.6223 18.2352 34.0645 14.004 34.0645H11.0215C10.411 34.0645 9.82819 34.2164 9.31587 34.4938C9.4829 33.3761 10.4492 32.5158 11.6127 32.5156L14.7106 32.5151C17.6985 32.5146 20.1291 30.0835 20.1291 27.0957C20.1291 23.9112 18.7155 20.9283 16.2509 18.9117L8.20568 12.3292C4.9589 9.67277 3.09677 5.74335 3.09677 1.54839H6.19355C6.19355 4.96355 8.97194 7.74194 12.3871 7.74194H15.7704L16.0103 7.53619C19.3503 4.67342 23.6122 3.09677 28.0112 3.09677C38.1793 3.09677 46.4516 11.3691 46.4516 21.5372V24.9693Z" fill="black"/>
<path d="M30.1936 30.9677C28.9128 30.9677 27.871 32.0097 27.871 33.2903V34.0645H29.4194V33.2903C29.4194 32.8634 29.7667 32.5161 30.1936 32.5161C31.4743 32.5161 32.5161 31.4742 32.5161 30.1935C32.5161 29.7667 32.8635 29.4193 33.2903 29.4193C34.571 29.4193 35.6129 28.3774 35.6129 27.0968V26.3226H34.0645V27.0968C34.0645 27.5236 33.7172 27.871 33.2903 27.871C32.0096 27.871 30.9677 28.9129 30.9677 30.1935C30.9677 30.6204 30.6204 30.9677 30.1936 30.9677Z" fill="black"/>
<path d="M20.129 37.1613H21.6774V36.3871C21.6774 35.9602 22.0247 35.6129 22.4516 35.6129C23.7322 35.6129 24.7742 34.5709 24.7742 33.2903C24.7742 32.8634 25.1215 32.5161 25.5484 32.5161C26.829 32.5161 27.871 31.4742 27.871 30.1935C27.871 29.7667 28.2183 29.4193 28.6452 29.4193C29.9258 29.4193 30.9677 28.3774 30.9677 27.0968V26.3226H29.4194V27.0968C29.4194 27.5236 29.072 27.871 28.6452 27.871C27.3645 27.871 26.3226 28.9129 26.3226 30.1935C26.3226 30.6204 25.9753 30.9677 25.5484 30.9677C24.2678 30.9677 23.2258 32.0097 23.2258 33.2903C23.2258 33.7172 22.8785 34.0645 22.4516 34.0645C21.171 34.0645 20.129 35.1065 20.129 36.3871V37.1613Z" fill="black"/>
</g>
</svg>
