<svg width="48" height="48" viewBox="0 0 48 48" fill="none" xmlns="http://www.w3.org/2000/svg">
<g opacity="0.5">
<path fill-rule="evenodd" clip-rule="evenodd" d="M24 0C10.7421 0 0 10.7553 0 24C0 37.2463 10.7421 48 24 48C37.2414 48 48 37.2463 48 24C48 10.7553 37.2414 0 24 0ZM40.3697 8.79889L30.9187 18.2383C31.0842 18.859 31.2332 19.483 31.3656 20.1087C31.4318 20.2361 31.4648 20.3735 31.4648 20.5092C32.2262 24.1208 32.6236 27.8085 32.6236 31.5128V36.3327C32.6236 37.3374 32.2263 38.3023 31.5145 39.0141C30.8028 39.7258 29.8263 40.1247 28.8166 40.1247C26.0525 40.1247 21.9311 40.1247 19.1505 40.1247C18.1574 40.1247 17.1808 39.7258 16.4691 39.0141C15.7574 38.3023 15.36 37.3374 15.36 36.331C15.36 35.5779 15.36 34.7172 15.36 33.797L8.78906 40.373C12.778 44.0772 18.1241 46.3448 24 46.3448C36.331 46.3448 46.3448 36.3327 46.3448 24C46.3448 18.1324 44.0773 12.7879 40.3697 8.79889ZM39.1946 7.62869C35.2056 3.92276 29.8593 1.65517 24 1.65517C11.6524 1.65517 1.65517 11.669 1.65517 24C1.65517 29.8692 3.92272 35.2138 7.61375 39.2011L15.3766 31.4532C15.4097 25.7826 16.3531 20.1534 18.1738 14.7823C18.4055 14.0839 18.5877 13.3837 18.687 12.6852C17.8263 12.288 17.2304 11.4124 17.2304 10.3961C17.2304 9.00579 18.356 7.87531 19.7463 7.87531C21.9973 7.87531 25.9863 7.87531 28.2373 7.87531C29.6277 7.87531 30.7532 9.00414 30.7532 10.3945C30.7532 11.376 30.2069 12.2284 29.3793 12.6439C29.4952 13.4086 29.6938 14.1716 29.9586 14.933C29.9586 14.9363 29.9586 14.9396 29.9586 14.9429C30.1075 15.4279 30.2731 15.9161 30.4221 16.4077L39.1946 7.62869ZM30.0249 21.7605C28.618 22.3978 26.0359 23.1079 23.1724 21.5884C20.8055 20.3371 18.7532 21.1845 18.058 21.557C17.3628 24.9087 17.0318 28.3266 17.0318 31.7578C17.0152 33.4378 17.0152 35.04 17.0152 36.3327C17.0152 36.8988 17.247 37.4433 17.6442 37.8439C18.0414 38.2444 18.5877 38.4695 19.1505 38.4695C21.9311 38.4695 26.0525 38.4695 28.8166 38.4695C29.3959 38.4695 29.9422 38.2444 30.3394 37.8439C30.7367 37.4433 30.9684 36.8988 30.9684 36.3327V31.5128C30.9684 28.2339 30.6538 24.9683 30.0249 21.7605ZM27.7407 12.9153H20.3256C20.2097 13.7148 20.0111 14.5142 19.7297 15.3137C19.2497 16.7239 18.8359 18.1539 18.4883 19.5972C19.7959 19.1901 21.782 18.9766 23.9503 20.1269C26.4662 21.4676 28.7339 20.5953 29.6773 20.0954C29.3132 18.5346 28.8828 16.9887 28.3862 15.4643C28.0883 14.6168 27.8731 13.7661 27.7407 12.9153ZM28.2373 11.2601H19.7463C19.2663 11.2601 18.8856 10.8745 18.8856 10.3961C18.8856 9.91944 19.2663 9.53048 19.7463 9.53048H28.2373C28.7173 9.53048 29.0981 9.91779 29.0981 10.3945C29.0981 10.8728 28.7173 11.2601 28.2373 11.2601Z" fill="black"/>
</g>
</svg>
