<svg width="48" height="55" viewBox="0 0 48 55" fill="none" xmlns="http://www.w3.org/2000/svg">
<g opacity="0.5">
<path d="M17.8341 41.3621C16.9906 38.432 15.9711 30.9103 16.7381 27.901C17.0529 26.668 17.6473 23.6264 16.3826 21.9978C15.5216 20.8899 14.0447 20.6652 12.1143 21.4407C6.56264 23.6932 6.07863 27.3241 6.64755 29.9599C8.03674 36.856 9.64897 41.9219 11.4384 45.0156C12.2904 46.4897 13.7345 47.4413 15.1168 47.4413C15.9779 47.4413 16.7466 47.0756 17.281 46.4122C17.8765 45.67 18.4591 44.2033 17.8482 41.4181C17.8448 41.3983 17.8392 41.3808 17.8341 41.3621ZM15.9128 45.31C15.7101 45.5619 15.4503 45.6836 15.1174 45.6836C14.4891 45.6836 13.5771 45.2047 12.9589 44.1359C11.2652 41.207 9.72086 36.321 8.3679 29.601C7.72539 26.6244 9.1259 24.548 12.7715 23.0688C13.3269 22.8452 13.8018 22.7326 14.1839 22.7326C14.6685 22.7326 14.8723 22.9148 14.9963 23.075C15.5273 23.7583 15.5437 25.4821 15.037 27.4668C14.1698 30.8633 15.2691 38.7773 16.1386 41.8195C16.6334 44.1008 16.1454 45.0207 15.9128 45.31Z" fill="black"/>
<path d="M18.2932 8.68669C17.9569 9.17183 17.7594 9.76113 17.7594 10.3963C17.7594 12.06 19.1129 13.4136 20.7761 13.4136C22.4404 13.4136 23.7939 12.06 23.7939 10.3963C23.7939 8.73311 22.4404 7.37902 20.7761 7.37902C20.3849 7.37902 20.0113 7.45657 19.6677 7.59244L17.5782 4.9652C17.277 4.58706 16.724 4.52422 16.3441 4.82595C15.9643 5.12767 15.902 5.67961 16.2043 6.06003L18.2932 8.68669ZM22.0373 10.3957C22.0373 11.0914 21.4712 11.6575 20.7755 11.6575C20.0803 11.6575 19.5148 11.0914 19.5148 10.3957C19.5148 9.69999 20.0803 9.13504 20.7755 9.13504C21.4712 9.1356 22.0373 9.70056 22.0373 10.3957Z" fill="black"/>
<path d="M40.5967 34.1319C40.1364 28.1534 40.2751 22.1314 41.011 16.1761C41.0682 16.06 41.1027 15.9304 41.1027 15.7923C41.1027 15.7272 41.0942 15.6638 41.0812 15.6021C41.1899 14.7608 41.3099 13.9191 41.4435 13.0801C41.7668 11.0501 41.3603 9.1837 40.2355 7.53298C39.1078 5.87547 37.5165 4.88367 35.6354 4.66403C33.4475 4.40985 31.2244 4.21342 29.0189 4.0719C27.1174 1.59751 24.1307 0 20.7755 0C17.4209 0 14.4336 1.59864 12.5315 4.07303C10.3317 4.21342 8.10865 4.40929 5.91618 4.6646C4.03506 4.88481 2.44377 5.8766 1.31612 7.53355C0.191296 9.18427 -0.215724 11.0507 0.107514 13.0807C1.60143 22.4665 1.60143 31.9853 0.107514 41.37C-0.215724 43.3989 0.19073 45.2664 1.31555 46.9194C2.44377 48.5758 4.03562 49.5664 5.91618 49.7861C10.8265 50.3589 15.8262 50.6494 20.7778 50.6494C23.6343 50.6494 26.5219 50.5486 29.3733 50.3573C31.2714 52.8418 34.2632 54.4501 37.6235 54.4501C43.3456 54.4501 48 49.794 48 44.0736C48.0011 39.3847 44.874 35.4147 40.5967 34.1319ZM30.1568 5.90603C31.919 6.03737 33.6869 6.2055 35.4322 6.40929C36.8118 6.56949 37.9389 7.28051 38.784 8.52194C39.6485 9.78999 39.9592 11.2307 39.7096 12.805C39.5981 13.5058 39.4996 14.21 39.4039 14.9148H30.1387C30.8016 13.5483 31.1735 12.0147 31.1735 10.3963C31.1735 10.2095 31.1678 10.0227 31.1588 9.83698C31.1537 9.76735 31.1469 9.69885 31.1424 9.62922C31.1333 9.51543 31.1254 9.40052 31.1135 9.2873C31.1039 9.19786 31.0914 9.11125 31.0795 9.02294C31.0676 8.93123 31.0557 8.83952 31.041 8.74895C31.0257 8.64931 31.0065 8.54968 30.9878 8.45062C30.9737 8.37419 30.9589 8.30004 30.9431 8.22531C30.9199 8.11606 30.895 8.00623 30.8678 7.89924C30.8531 7.83754 30.8361 7.7764 30.8203 7.71583C30.7891 7.59752 30.7563 7.48034 30.7201 7.36315C30.7059 7.31787 30.6917 7.27371 30.6776 7.22842C30.6368 7.09879 30.5938 6.96972 30.5463 6.84235C30.5389 6.82254 30.5321 6.80386 30.5253 6.78348C30.4138 6.48515 30.2944 6.19248 30.1568 5.90603ZM20.7761 1.75658C23.7469 1.75658 26.3708 3.26352 27.927 5.55223C27.9394 5.57204 27.9519 5.59072 27.9643 5.60997C28.0962 5.80923 28.2196 6.01246 28.3357 6.22135C28.3583 6.26211 28.3804 6.3023 28.4019 6.34192C28.5123 6.54968 28.6153 6.7631 28.7093 6.98104C28.7212 7.00765 28.7342 7.03312 28.745 7.05973C28.9493 7.546 29.1078 8.05492 29.2216 8.58138C29.2352 8.64762 29.2471 8.71385 29.2595 8.78065C29.2969 8.97765 29.3263 9.17521 29.3507 9.37674C29.3597 9.4509 29.3694 9.52393 29.3767 9.59808C29.4005 9.86245 29.4169 10.1291 29.4169 10.3974C29.4169 15.1616 25.5403 19.0382 20.7755 19.0382C16.0113 19.0382 12.1358 15.1616 12.1358 10.3974C12.1358 10.1274 12.1517 9.86132 12.1755 9.59695C12.1828 9.52393 12.1924 9.45203 12.2009 9.38014C12.2247 9.17578 12.2553 8.97425 12.2938 8.77555C12.3057 8.71272 12.317 8.64818 12.33 8.58648C12.4432 8.05662 12.6023 7.54487 12.8089 7.05633C12.818 7.03539 12.8276 7.01444 12.8378 6.99236C12.9335 6.77102 13.0382 6.55364 13.1514 6.34136C13.1729 6.30286 13.1944 6.2638 13.2154 6.22418C13.3297 6.01869 13.4514 5.81716 13.5816 5.62186C13.5975 5.59751 13.6133 5.57431 13.6292 5.54996C15.1854 3.26125 17.8086 1.75658 20.7761 1.75658ZM2.76871 8.52194C3.61332 7.28051 4.74097 6.56949 6.12111 6.40929C7.86863 6.20606 9.63654 6.03793 11.3965 5.90717C11.255 6.2004 11.1316 6.501 11.0195 6.80499C11.0155 6.81518 11.0121 6.82367 11.0082 6.83273C10.9589 6.96859 10.9136 7.10558 10.87 7.24428C10.8582 7.28051 10.8468 7.31617 10.835 7.3524C10.7976 7.47524 10.7614 7.60035 10.7285 7.72489C10.7149 7.77923 10.7008 7.83301 10.6878 7.88622C10.6589 8.00114 10.6323 8.11492 10.6079 8.22984C10.5932 8.29947 10.5802 8.3691 10.5672 8.43873C10.5468 8.54289 10.5281 8.64648 10.5106 8.75178C10.4964 8.83896 10.4857 8.9267 10.4744 9.01388C10.4619 9.10558 10.4489 9.19616 10.4393 9.28787C10.4274 9.39825 10.4194 9.51034 10.4115 9.62299C10.4059 9.69375 10.3985 9.76452 10.3945 9.83641C10.3843 10.0221 10.3798 10.2089 10.3798 10.3957C10.3798 12.0142 10.7512 13.5477 11.4141 14.9143H2.15111C2.056 14.21 1.95524 13.5069 1.84315 12.8044C1.59294 11.2307 1.90429 9.78999 2.76871 8.52194ZM28.317 48.668C20.9227 49.1079 13.4452 48.8945 6.12111 48.0414C4.74097 47.8812 3.61332 47.1702 2.76814 45.9298C1.90429 44.6607 1.59294 43.2188 1.84315 41.6468C3.16101 33.3643 3.3365 24.9816 2.37245 16.6714H12.4483C12.4625 16.6714 12.4761 16.668 12.4902 16.6669C14.39 19.1724 17.3965 20.7942 20.7761 20.7942C24.1562 20.7942 27.1633 19.1724 29.0637 16.6669C29.0778 16.668 29.0914 16.6714 29.1056 16.6714H39.1882C38.5316 22.3436 38.3951 28.0719 38.801 33.7634C38.7852 33.7611 38.7682 33.7611 38.7518 33.7589C38.6182 33.7447 38.484 33.7334 38.3493 33.7243C38.2966 33.7209 38.2428 33.7153 38.1902 33.7125C38.0028 33.7023 37.8143 33.6972 37.6247 33.6972C36.3193 33.6972 35.071 33.9417 33.9207 34.3827C34.2587 33.0037 34.5882 31.5324 34.9012 29.9723C35.4735 27.3241 34.9901 23.6932 29.435 21.439C27.7498 20.7637 26.4313 20.8276 25.5165 21.6292C23.8166 23.1197 24.4591 26.5118 24.8135 27.9015C25.5816 30.912 24.5627 38.4337 23.7181 41.3638C23.7124 41.3813 23.7079 41.4 23.7039 41.4192C22.8927 45.1198 24.15 46.5259 24.9714 47.0349C25.4078 47.306 25.9088 47.4374 26.4302 47.4374C26.8536 47.4374 27.2912 47.3479 27.7209 47.1764C27.7305 47.203 27.7396 47.2296 27.7481 47.2562C27.9037 47.7379 28.0917 48.2112 28.317 48.668ZM27.2476 44.0742C27.2476 44.2644 27.2539 44.4535 27.2635 44.6414C27.2669 44.7088 27.2743 44.775 27.2782 44.8424C27.2878 44.9618 27.2963 45.0813 27.3088 45.1996C27.3173 45.2726 27.3269 45.3445 27.3371 45.4175C26.8038 45.7147 26.2672 45.7713 25.8958 45.5415C25.3456 45.1996 24.9306 44.0442 25.4129 41.8212C26.2825 38.7795 27.3824 30.865 26.5146 27.4668C25.9683 25.3275 26.0317 23.5121 26.6725 22.9499C27.1424 22.5384 28.0775 22.7875 28.7767 23.0671C32.4257 24.5486 33.8268 26.625 33.1814 29.6134C32.7518 31.7464 32.2977 33.7074 31.8296 35.4679C29.0682 37.3337 27.2476 40.4959 27.2476 44.0742ZM37.6241 52.6935C34.3725 52.6935 31.5375 50.8826 30.0696 48.218C30.0521 48.1857 30.0345 48.154 30.0175 48.1206C29.9083 47.9151 29.8058 47.704 29.713 47.4894C29.6983 47.4549 29.6824 47.4232 29.6683 47.3887C29.4662 46.9035 29.3071 46.3969 29.1961 45.8715C29.1825 45.8121 29.1729 45.7498 29.161 45.6904C29.1225 45.49 29.092 45.289 29.0676 45.0858C29.0597 45.0128 29.0501 44.9409 29.0439 44.8679C29.0195 44.6058 29.0037 44.3414 29.0037 44.0742C29.0037 39.3202 32.8701 35.4526 37.6241 35.4526C37.9004 35.4526 38.1721 35.469 38.4415 35.4945C38.4727 35.4968 38.5038 35.499 38.5355 35.5024C38.7942 35.5302 39.0501 35.5698 39.302 35.6196C39.3371 35.6264 39.3716 35.6338 39.4067 35.6406C43.3077 36.4642 46.2446 39.9315 46.2446 44.0742C46.2446 48.8271 42.3781 52.6935 37.6241 52.6935Z" fill="black"/>
<path d="M41.7418 39.6428C41.3195 39.4039 40.784 39.5556 40.5468 39.9779L37.0557 46.1936L34.6136 43.2426C34.3039 42.8678 33.7503 42.8158 33.3766 43.1254C33.003 43.4351 32.9504 43.9887 33.2606 44.3618L36.5185 48.2989C36.686 48.501 36.934 48.6176 37.1949 48.6176C37.221 48.6176 37.2476 48.6165 37.2736 48.6142C37.5623 48.5876 37.8188 48.4218 37.9609 48.1699L42.078 40.8384C42.3158 40.4155 42.1652 39.88 41.7418 39.6428Z" fill="black"/>
</g>
</svg>
