<svg width="48" height="54" viewBox="0 0 48 54" fill="none" xmlns="http://www.w3.org/2000/svg">
<g opacity="0.5">
<path d="M8.09673 11.856C5.95005 11.8583 3.89195 12.7121 2.37402 14.23C0.856086 15.7479 0.00230145 17.806 0 19.9527V51.9495C0 52.4683 0.206105 52.9659 0.572974 53.3328C0.939844 53.6996 1.43742 53.9057 1.95626 53.9057H30.748C31.2668 53.9057 31.7644 53.6996 32.1313 53.3328C32.4982 52.9659 32.7043 52.4683 32.7043 51.9495V19.9527C32.702 17.806 31.8482 15.7479 30.3302 14.23C28.8123 12.7121 26.7542 11.8583 24.6075 11.856H24.4054V9.35634H24.9118C25.2116 9.35634 25.5083 9.2973 25.7852 9.18261C26.0621 9.06791 26.3137 8.8998 26.5257 8.68787C26.7376 8.47594 26.9057 8.22434 27.0204 7.94744C27.1351 7.67054 27.1941 7.37375 27.1941 7.07404V2.2823C27.1941 1.677 26.9537 1.09648 26.5257 0.66847C26.0976 0.240456 25.5171 0 24.9118 0H7.79242C7.18712 0 6.60661 0.240456 6.17859 0.66847C5.75058 1.09648 5.51012 1.677 5.51012 2.2823V7.07295C5.51012 7.67826 5.75058 8.25877 6.17859 8.68678C6.60661 9.1148 7.18712 9.35525 7.79242 9.35525H8.29887V11.8549L8.09673 11.856ZM7.79242 7.61744C7.6483 7.61744 7.51008 7.56019 7.40818 7.45828C7.30627 7.35638 7.24902 7.21816 7.24902 7.07404V2.2823C7.24902 2.13818 7.30627 1.99996 7.40818 1.89805C7.51008 1.79615 7.6483 1.73889 7.79242 1.73889H24.9118C25.056 1.73889 25.1942 1.79615 25.2961 1.89805C25.398 1.99996 25.4552 2.13818 25.4552 2.2823V7.07295C25.4552 7.21707 25.398 7.35529 25.2961 7.4572C25.1942 7.55911 25.056 7.61636 24.9118 7.61636L7.79242 7.61744ZM22.6665 9.35634V11.856H10.0378V9.35634H22.6665ZM24.6075 13.5949C26.2932 13.5966 27.9093 14.267 29.1013 15.459C30.2932 16.6509 30.9636 18.2671 30.9654 19.9527V51.9495C30.9654 52.0071 30.9425 52.0624 30.9017 52.1032C30.8609 52.1439 30.8056 52.1668 30.748 52.1668H1.95626C1.89861 52.1668 1.84332 52.1439 1.80256 52.1032C1.7618 52.0624 1.73889 52.0071 1.73889 51.9495V19.9527C1.74062 18.2671 2.41102 16.6509 3.60297 15.459C4.79492 14.267 6.41105 13.5966 8.09673 13.5949H24.6075Z" fill="black"/>
<path d="M6.50238 22.9512V44.3614C6.50382 45.0481 6.77747 45.7062 7.26336 46.1915C7.74924 46.6767 8.40771 46.9496 9.09442 46.9501H23.6098C24.2966 46.949 24.9548 46.6756 25.4403 46.1899C25.9257 45.7043 26.1988 45.0459 26.1997 44.3592V22.9491C26.1988 22.2624 25.9257 21.604 25.4403 21.1183C24.9548 20.6326 24.2966 20.3593 23.6098 20.3581H9.09442C8.40696 20.3587 7.74783 20.6321 7.26182 21.1183C6.77582 21.6045 6.50267 22.2638 6.50238 22.9512ZM8.24127 22.9512C8.24156 22.7255 8.33127 22.5091 8.49077 22.3494C8.65026 22.1897 8.86654 22.0998 9.09225 22.0992H23.6098C23.8355 22.0998 24.0518 22.1897 24.2113 22.3494C24.3708 22.5091 24.4605 22.7255 24.4608 22.9512V44.3614C24.4605 44.5871 24.3708 44.8035 24.2113 44.9632C24.0518 45.1229 23.8355 45.2129 23.6098 45.2134H9.09442C8.86872 45.2129 8.65244 45.1229 8.49294 44.9632C8.33345 44.8035 8.24373 44.5871 8.24345 44.3614L8.24127 22.9512Z" fill="black"/>
<path d="M10.3062 35.5061C10.9158 36.445 11.7219 37.2405 12.6689 37.8376C13.6159 38.4347 14.6813 38.8191 15.7913 38.9643C15.8982 39.0098 16.0131 39.0335 16.1293 39.0338H16.175L16.3554 39.023L16.5358 39.0338H16.5825C16.6159 39.0339 16.6493 39.0317 16.6825 39.0273H16.7108C16.7416 39.0229 16.7721 39.0163 16.802 39.0078H16.8151C16.8492 38.9984 16.8826 38.9868 16.9151 38.973C18.025 38.8278 19.0901 38.4433 20.037 37.8463C20.9838 37.2492 21.7897 36.4537 22.3991 35.5147C23.0603 34.4904 23.4452 33.3124 23.5162 32.0952C23.5872 30.8781 23.3421 29.6633 22.8045 28.5689V28.5624L22.7904 28.5374L22.7654 28.4907L22.736 28.4483L22.7175 28.4222C22.7056 28.4059 22.6926 28.3907 22.6795 28.3744L22.6643 28.3581C22.6502 28.3429 22.636 28.3277 22.6208 28.3135L22.6045 28.2983C22.5904 28.2853 22.5752 28.2733 22.56 28.2614L22.5382 28.2451L22.498 28.2168L22.4665 28.1962L22.4339 28.1788L22.3893 28.156L22.3654 28.1462L22.31 28.1234L22.2915 28.1179L22.2296 28.0994H22.21L22.1481 28.0875H22.1165C22.0995 28.0864 22.0825 28.0864 22.0655 28.0875H21.9687C20.8979 28.133 19.8478 28.3976 18.8832 28.8649C17.9187 29.3322 17.0602 29.9924 16.3608 30.8045C15.6614 29.9924 14.8029 29.3322 13.8384 28.8649C12.8738 28.3976 11.8237 28.133 10.7529 28.0875H10.6551C10.6377 28.0864 10.6203 28.0864 10.6029 28.0875H10.5735C10.5507 28.0875 10.5268 28.0951 10.504 28.1005H10.4942C10.4681 28.1071 10.4431 28.1147 10.4181 28.1234C10.3929 28.1319 10.3682 28.1421 10.3442 28.1538C10.3203 28.1647 10.2986 28.1755 10.2758 28.1886H10.2682C10.2486 28.2005 10.229 28.2125 10.2095 28.2266L10.1964 28.2353C10.179 28.2474 10.1623 28.2605 10.1464 28.2744L10.129 28.2886C10.1138 28.3018 10.0992 28.316 10.0856 28.3309L10.0682 28.3472L10.0269 28.3961L10.0138 28.4124C9.99862 28.432 9.98449 28.4527 9.97145 28.4733C9.97112 28.4762 9.97112 28.4791 9.97145 28.482C9.95272 28.5126 9.93567 28.5441 9.92037 28.5766C9.38313 29.667 9.13636 30.8777 9.20395 32.0914C9.27154 33.3051 9.65119 34.4809 10.3062 35.505V35.5061ZM21.459 29.8666C21.7387 30.6388 21.8362 31.4651 21.744 32.2812C21.6519 33.0973 21.3724 33.8811 20.9276 34.5714C20.215 35.6748 19.1543 36.5086 17.9139 36.9406C17.9312 36.8602 17.9475 36.7809 17.9628 36.7005C18.0108 36.6174 18.0449 36.5271 18.0638 36.4331C18.5583 33.9237 20.1755 32.8412 20.2375 32.7988C20.4292 32.674 20.5641 32.4786 20.6127 32.255C20.6614 32.0314 20.6199 31.7976 20.4974 31.6044C20.3748 31.4112 20.181 31.274 19.958 31.2228C19.7349 31.1715 19.5007 31.2102 19.3061 31.3305C19.2495 31.3664 18.4366 31.8957 17.653 33.0151C17.5671 32.7797 17.4687 32.5489 17.3585 32.3239C17.8377 31.6552 18.4491 31.0921 19.1548 30.6694C19.8605 30.2467 20.6455 29.9735 21.4612 29.8666H21.459ZM11.243 29.8666C12.1001 29.9786 12.9228 30.2749 13.6544 30.7351C14.3861 31.1953 15.0094 31.8085 15.4816 32.5325C16.2359 33.705 16.5027 35.1256 16.225 36.4918L14.2176 32.6945C14.1098 32.4905 13.9254 32.3378 13.705 32.2698C13.4846 32.2018 13.2462 32.2242 13.0422 32.332C12.8383 32.4398 12.6855 32.6242 12.6176 32.8447C12.5496 33.0651 12.572 33.3035 12.6798 33.5074L14.4187 36.7972C13.3314 36.3386 12.4077 35.5629 11.7679 34.5714C11.3242 33.8805 11.0459 33.0965 10.9548 32.2804C10.8638 31.4644 10.9624 30.6383 11.243 29.8666Z" fill="black"/>
<path d="M41.6498 53.6938H42.2943C43.807 53.6921 45.2573 53.0904 46.3269 52.0207C47.3966 50.951 47.9983 49.5008 48 47.988V35.7419C47.9983 34.2292 47.3966 32.7789 46.3269 31.7092C45.2573 30.6396 43.807 30.0379 42.2943 30.0361H41.6498C40.137 30.0379 38.6868 30.6396 37.6171 31.7092C36.5475 32.7789 35.9458 34.2292 35.944 35.7419V47.988C35.9458 49.5008 36.5475 50.951 37.6171 52.0207C38.6868 53.0904 40.137 53.6921 41.6498 53.6938ZM37.6829 35.7419C37.6841 34.6902 38.1024 33.6818 38.8461 32.9382C39.5897 32.1945 40.5981 31.7762 41.6498 31.775H42.2943C43.346 31.7762 44.3543 32.1945 45.098 32.9382C45.8417 33.6818 46.26 34.6902 46.2611 35.7419V40.9955H37.6829V35.7419ZM37.6829 42.7344H46.2611V47.988C46.26 49.0398 45.8417 50.0481 45.098 50.7918C44.3543 51.5354 43.346 51.9537 42.2943 51.9549H41.6498C40.5981 51.9537 39.5897 51.5354 38.8461 50.7918C38.1024 50.0481 37.6841 49.0398 37.6829 47.988V42.7344Z" fill="black"/>
</g>
</svg>
