<svg width="48" height="48" viewBox="0 0 48 48" fill="none" xmlns="http://www.w3.org/2000/svg">
<path d="M43.3488 20.2787C42.6419 19.54 41.9106 18.7788 41.635 18.1094C41.38 17.4963 41.365 16.48 41.35 15.4956C41.3219 13.6656 41.2919 11.5919 39.85 10.15C38.4081 8.70812 36.3344 8.67812 34.5044 8.65C33.52 8.635 32.5037 8.62 31.8906 8.365C31.2231 8.08937 30.46 7.35812 29.7212 6.65125C28.4275 5.40812 26.9575 4 25 4C23.0425 4 21.5744 5.40812 20.2787 6.65125C19.54 7.35812 18.7788 8.08937 18.1094 8.365C17.5 8.62 16.48 8.635 15.4956 8.65C13.6656 8.67812 11.5919 8.70812 10.15 10.15C8.70812 11.5919 8.6875 13.6656 8.65 15.4956C8.635 16.48 8.62 17.4963 8.365 18.1094C8.08937 18.7769 7.35812 19.54 6.65125 20.2787C5.40812 21.5725 4 23.0425 4 25C4 26.9575 5.40812 28.4256 6.65125 29.7212C7.35812 30.46 8.08937 31.2212 8.365 31.8906C8.62 32.5037 8.635 33.52 8.65 34.5044C8.67812 36.3344 8.70812 38.4081 10.15 39.85C11.5919 41.2919 13.6656 41.3219 15.4956 41.35C16.48 41.365 17.4963 41.38 18.1094 41.635C18.7769 41.9106 19.54 42.6419 20.2787 43.3488C21.5725 44.5919 23.0425 46 25 46C26.9575 46 28.4256 44.5919 29.7212 43.3488C30.46 42.6419 31.2212 41.9106 31.8906 41.635C32.5037 41.38 33.52 41.365 34.5044 41.35C36.3344 41.3219 38.4081 41.2919 39.85 39.85C41.2919 38.4081 41.3219 36.3344 41.35 34.5044C41.365 33.52 41.38 32.5037 41.635 31.8906C41.9106 31.2231 42.6419 30.46 43.3488 29.7212C44.5919 28.4275 46 26.9575 46 25C46 23.0425 44.5919 21.5744 43.3488 20.2787ZM41.1831 27.6456C40.285 28.5831 39.355 29.5525 38.8619 30.7431C38.3894 31.8869 38.3687 33.1937 38.35 34.4594C38.3312 35.7719 38.3106 37.1463 37.7275 37.7275C37.1444 38.3088 35.7794 38.3312 34.4594 38.35C33.1937 38.3687 31.8869 38.3894 30.7431 38.8619C29.5525 39.355 28.5831 40.285 27.6456 41.1831C26.7081 42.0812 25.75 43 25 43C24.25 43 23.2844 42.0775 22.3544 41.1831C21.4244 40.2887 20.4475 39.355 19.2569 38.8619C18.1131 38.3894 16.8063 38.3687 15.5406 38.35C14.2281 38.3312 12.8537 38.3106 12.2725 37.7275C11.6913 37.1444 11.6687 35.7794 11.65 34.4594C11.6312 33.1937 11.6106 31.8869 11.1381 30.7431C10.645 29.5525 9.715 28.5831 8.81687 27.6456C7.91875 26.7081 7 25.75 7 25C7 24.25 7.9225 23.2844 8.81687 22.3544C9.71125 21.4244 10.645 20.4475 11.1381 19.2569C11.6106 18.1131 11.6312 16.8063 11.65 15.5406C11.6687 14.2281 11.6894 12.8537 12.2725 12.2725C12.8556 11.6913 14.2206 11.6687 15.5406 11.65C16.8063 11.6312 18.1131 11.6106 19.2569 11.1381C20.4475 10.645 21.4169 9.715 22.3544 8.81687C23.2919 7.91875 24.25 7 25 7C25.75 7 26.7156 7.9225 27.6456 8.81687C28.5756 9.71125 29.5525 10.645 30.7431 11.1381C31.8869 11.6106 33.1937 11.6312 34.4594 11.65C35.7719 11.6687 37.1463 11.6894 37.7275 12.2725C38.3088 12.8556 38.3312 14.2206 38.35 15.5406C38.3687 16.8063 38.3894 18.1131 38.8619 19.2569C39.355 20.4475 40.285 21.4169 41.1831 22.3544C42.0812 23.2919 43 24.25 43 25C43 25.75 42.0775 26.7156 41.1831 27.6456Z" fill="#B35650"/>
<line x1="43.4142" y1="7.41421" x2="7.41421" y2="43.4142" stroke="#F6D6D4" stroke-width="4"/>
<line x1="41.4142" y1="5.41421" x2="5.41421" y2="41.4142" stroke="#B35650" stroke-width="4"/>
</svg>
