<svg width="48" height="42" viewBox="0 0 48 42" fill="none" xmlns="http://www.w3.org/2000/svg">
<path opacity="0.5" d="M33.9544 0C30.202 0 26.6311 1.5 24 4.14844C21.3689 1.5 17.7975 0 14.0452 0C6.30047 0 0 6.30094 0 14.0456C0 31.5197 22.6584 41.3981 23.6231 41.8106C23.7431 41.8622 23.8716 41.8875 24 41.8875C24.1284 41.8875 24.2569 41.8622 24.3769 41.8106C25.2289 41.4463 42.9965 33.6922 47.1345 19.8461C47.2998 19.6737 47.4042 19.442 47.4042 19.1841C47.4042 19.122 47.3801 19.0679 47.3689 19.009C47.7703 17.4292 48 15.7763 48 14.0456C48 6.30094 41.6991 0 33.9544 0ZM23.9995 39.8747C21.4826 38.712 7.16502 31.6641 3.0402 20.2575H9.86672C10.1705 20.2575 10.4564 20.1141 10.6373 19.8703L15.2409 13.6734L23.8266 25.23C24.0075 25.4738 24.2934 25.6172 24.5972 25.6172C24.9009 25.6172 25.1869 25.4738 25.3678 25.23L29.1464 20.1441H44.9977C40.9245 31.6085 26.5232 38.7074 23.9995 39.8747ZM45.5772 18.2241H28.6636C28.3598 18.2241 28.0739 18.3675 27.893 18.6113L24.5972 23.0475L16.0116 11.4909C15.6497 11.0034 14.8322 11.0034 14.4703 11.4909L9.38391 18.3375H2.45279C2.11307 16.9626 1.92 15.5328 1.92 14.0456C1.92 7.35938 7.35937 1.92 14.0452 1.92C17.5945 1.92 20.9564 3.47531 23.2697 6.1875C23.6344 6.61688 24.3656 6.61688 24.7303 6.1875C27.0436 3.47531 30.4055 1.92 33.9544 1.92C40.6406 1.92 46.08 7.35938 46.08 14.0456C46.08 15.4914 45.8998 16.8841 45.5772 18.2241Z" fill="black"/>
</svg>
