<svg width="48" height="64" viewBox="0 0 48 64" fill="none" xmlns="http://www.w3.org/2000/svg">
<path opacity="0.5" d="M2.33765 37.497C0.895765 36.0631 0.067278 34.1432 0.00354826 32.1118C-0.0601815 30.0326 0.736441 28.0331 2.24206 26.4797C3.8353 24.8387 6.04991 23.8987 8.29638 23.8987H8.79029C8.65486 23.7951 8.53537 23.6756 8.40791 23.5561C6.91026 22.0585 6.07381 20.0589 6.07381 17.924C6.07381 13.5346 9.65064 9.95777 14.04 9.95777H22.3408C23.241 9.95777 23.9819 9.22488 23.9819 8.31673V0H25.9734V8.30876C25.9734 10.3083 24.3403 11.9414 22.3408 11.9414H14.04C10.75 11.9414 8.06536 14.6339 8.06536 17.916C8.06536 19.5172 8.68673 21.0149 9.81793 22.1461C10.9571 23.2693 12.4547 23.8987 14.048 23.8987H33.7564C34.2981 23.8987 34.7522 24.3527 34.7522 24.8944C34.7522 25.4521 34.2981 25.8902 33.7564 25.8902H8.29638C6.57568 25.8902 4.87887 26.6231 3.66004 27.8818C2.53681 29.0369 1.93934 30.5345 1.98714 32.0561C2.02697 33.5935 2.64833 35.0275 3.7397 36.0949C4.86294 37.2182 6.36059 37.8475 7.96976 37.8475H39.0539C39.5956 37.8475 40.0497 38.3016 40.0497 38.8433C40.0497 39.4009 39.5956 39.839 39.0539 39.839H18.5728C15.2748 39.839 12.5981 42.5316 12.5981 45.8137C12.5981 47.4149 13.2195 48.9126 14.3507 50.0438C15.4739 51.167 16.9716 51.7963 18.5808 51.7963H22.3329C24.9537 51.7963 27.0887 53.9313 27.0887 56.5522V63.7297H25.0971V56.5442C25.0971 55.0227 23.8544 53.772 22.3249 53.772H18.5728C16.4379 53.772 14.4383 52.9514 12.9407 51.4379C11.4271 49.9402 10.6066 47.9407 10.6066 45.8057C10.6066 43.4318 11.6502 41.2889 13.3231 39.8311H7.96976C5.83482 39.8311 3.8353 39.0106 2.33765 37.497ZM40.0338 30.8691H39.978C41.635 29.4113 42.6945 27.2763 42.6945 24.8944C42.6945 20.505 39.1177 16.9282 34.7283 16.9282H28.6979C31.255 15.0561 32.9359 12.037 32.9359 8.62741V0H30.9443V8.62741C30.9443 13.2 27.2161 16.9282 22.6435 16.9282H15.0119C14.4702 16.9282 14.0161 17.3823 14.0161 17.924C14.0161 18.4816 14.4702 18.9198 15.0119 18.9198H34.7203C38.0183 18.9198 40.695 21.6123 40.695 24.8944C40.695 28.1924 38.0183 30.8691 34.7203 30.8691H8.94961C8.39198 30.8691 7.95383 31.3232 7.95383 31.8649C7.95383 32.4225 8.39198 32.8606 8.94961 32.8606H40.0338C43.3318 32.8606 46.0084 35.5373 46.0084 38.8353C46.0084 42.1333 43.3318 44.81 40.0338 44.81C40.0338 44.81 40.0338 44.81 40.0179 44.81H19.5526C18.995 44.81 18.5569 45.264 18.5569 45.8057C18.5569 46.3634 18.995 46.8015 19.5526 46.8015H23.3047C28.1323 46.8015 32.0516 50.7289 32.0516 55.5484V63.7297H34.0432V55.5484C34.0432 51.9397 32.2428 48.7453 29.5104 46.8015H40.0338C40.0497 46.8015 40.0497 46.8015 40.0497 46.8015C44.4391 46.7856 48 43.2247 48 38.8353C48 34.4459 44.4232 30.8691 40.0338 30.8691Z" fill="black"/>
</svg>
