<svg width="48" height="53" viewBox="0 0 48 53" fill="none" xmlns="http://www.w3.org/2000/svg">
<path opacity="0.5" d="M40.1939 52.9204H20.4312C19.9903 52.9204 19.61 52.6107 19.5207 52.1801L18.692 48.1941C18.5553 47.5356 17.9685 47.0585 17.2961 47.0585H12.1652C8.90833 47.0585 6.13504 44.7298 5.57053 41.5222L4.46195 35.2093L1.66262 33.9082C0.906525 33.5566 0.341079 32.8954 0.111366 32.0937C-0.118347 31.2921 0.0109249 30.4318 0.4657 29.7324L4.36337 23.7422V20.9615C4.36337 9.40333 13.7667 0 25.3249 0H26.6976C36.3278 0 44.7928 6.49798 47.2824 15.8018C48.7788 21.3949 47.9111 27.439 44.9016 32.3858L41.0458 38.7219C39.767 40.8228 39.3392 43.3059 39.8386 45.7147L41.1034 51.8025C41.1611 52.0769 41.0913 52.3614 40.9146 52.5781C40.7379 52.7948 40.4729 52.9204 40.1939 52.9204ZM21.1873 51.0604H39.0509L38.0186 46.0913C37.4215 43.2194 37.933 40.2583 39.4573 37.7528L43.3131 31.4167C46.0604 26.9024 46.8528 21.3856 45.4866 16.2808C43.2146 7.78977 35.488 1.85909 26.6985 1.85909H25.3258C14.7934 1.85909 6.22432 10.4282 6.22432 20.9606V24.0175C6.22432 24.1979 6.17224 24.3737 6.07366 24.5244L2.0244 30.7461C1.86165 30.9972 1.81701 31.2921 1.89885 31.5794C1.98162 31.8668 2.17599 32.0947 2.44662 32.2202L5.68492 33.7268C5.9602 33.8552 6.1555 34.11 6.20851 34.4095L7.40079 41.1995C7.80813 43.5161 9.81137 45.1976 12.1634 45.1976H17.2942C18.8436 45.1976 20.1959 46.2987 20.5111 47.8146L21.1873 51.0604ZM26.1331 23.7329C25.3239 23.7329 24.5148 23.4251 23.8992 22.8094L17.842 16.7523C16.7427 15.653 16.155 14.1324 16.2294 12.5793C16.3028 11.0271 17.0366 9.56609 18.2428 8.57005C20.4098 6.78071 23.7299 7.00205 25.802 9.07318L26.1331 9.40427L26.4651 9.07318C28.5371 7.00019 31.8573 6.78071 34.0233 8.57005C35.2286 9.56516 35.9623 11.0271 36.0367 12.5793C36.1102 14.1324 35.5224 15.6539 34.4232 16.7532L28.366 22.8104C27.7513 23.4251 26.9422 23.7329 26.1331 23.7329ZM21.6783 9.21547C20.8664 9.21547 20.0685 9.47495 19.4268 10.0041C18.613 10.6765 18.1368 11.6223 18.0875 12.6677C18.0382 13.6991 18.4289 14.7081 19.158 15.4382L25.2151 21.4953C25.722 22.0022 26.546 22.0022 27.0528 21.4953L33.11 15.4382C33.8391 14.709 34.2297 13.6991 34.1804 12.6677C34.1311 11.6223 33.655 10.6765 32.8412 10.0041C31.4062 8.81836 29.1826 8.98669 27.782 10.3882L26.7924 11.3777C26.6176 11.5526 26.3814 11.6502 26.1349 11.6502C25.8885 11.6502 25.6513 11.5526 25.4774 11.3777L24.4888 10.3882C23.7113 9.61259 22.6846 9.21547 21.6783 9.21547ZM15.2631 24.7336C15.6686 24.4184 15.7411 23.8334 15.4258 23.4288C15.1096 23.0224 14.5256 22.9508 14.121 23.2661C12.9976 24.1403 11.0836 24.1393 9.96204 23.2661C9.55748 22.9508 8.97343 23.0233 8.65723 23.4288C8.34196 23.8343 8.4145 24.4184 8.81998 24.7336C9.70628 25.4237 10.8502 25.8031 12.0425 25.8031C13.2329 25.8031 14.3768 25.4237 15.2631 24.7336Z" fill="black"/>
</svg>
